<mxfile host="app.diagrams.net" modified="2024-04-18T12:19:07.466Z" agent="Mozilla/5.0 (Windows NT 10.0; Win64; x64) AppleWebKit/537.36 (KHTML, like Gecko) Chrome/123.0.0.0 Safari/537.36 Edg/123.0.0.0" etag="O9OVz1pw627Z4iwlE0I_" version="24.2.0" type="github" pages="3">
  <diagram name="Architecture Overview" id="H0WjSN8u0w2IexakOVe9">
    <mxGraphModel dx="1733" dy="949" grid="1" gridSize="10" guides="1" tooltips="1" connect="1" arrows="1" fold="1" page="1" pageScale="1" pageWidth="827" pageHeight="1169" math="0" shadow="0">
      <root>
        <mxCell id="0" />
        <mxCell id="1" parent="0" />
        <mxCell id="PIIRv9eCLGQA87d_PgNQ-48" value="" style="rounded=0;whiteSpace=wrap;html=1;align=left;verticalAlign=middle;fontFamily=Helvetica;fontSize=12;fillColor=#ffe6cc;strokeColor=#d79b00;labelBackgroundColor=#ffe6cc;movable=1;resizable=1;rotatable=1;deletable=1;editable=1;locked=0;connectable=1;" parent="1" vertex="1">
          <mxGeometry x="10" y="300" width="1580" height="620" as="geometry" />
        </mxCell>
        <mxCell id="CP4FYi2aOfL6vlJ2FLCF-29" value="Backend" style="rounded=1;arcSize=10;dashed=0;fillColor=none;gradientColor=none;strokeWidth=2;align=left;verticalAlign=top;fontFamily=Helvetica;fontSize=16;fontColor=#666666;fontStyle=1;spacingLeft=20;spacingTop=10;" parent="1" vertex="1">
          <mxGeometry x="680" y="358" width="900" height="542" as="geometry" />
        </mxCell>
        <mxCell id="z9MHHe7EICh6K6NeDYxP-3" value="AWS" style="rounded=1;arcSize=10;dashed=0;fillColor=none;gradientColor=none;strokeWidth=2;align=left;verticalAlign=top;fontFamily=Helvetica;fontSize=12;fontColor=default;" parent="1" vertex="1">
          <mxGeometry x="715.76" y="600" width="110" height="280" as="geometry" />
        </mxCell>
        <mxCell id="z9MHHe7EICh6K6NeDYxP-1" value="" style="rounded=1;arcSize=10;dashed=0;fillColor=none;gradientColor=none;strokeWidth=2;align=left;verticalAlign=top;fontFamily=Helvetica;fontSize=12;fontColor=default;" parent="1" vertex="1">
          <mxGeometry x="840" y="384" width="730" height="506" as="geometry" />
        </mxCell>
        <mxCell id="CP4FYi2aOfL6vlJ2FLCF-31" value="Microservices" style="rounded=1;arcSize=10;dashed=0;fillColor=none;gradientColor=none;strokeWidth=2;align=left;verticalAlign=top;fontFamily=Helvetica;fontSize=12;fontColor=default;spacingLeft=20;" parent="1" vertex="1">
          <mxGeometry x="865.63" y="414" width="480" height="460" as="geometry" />
        </mxCell>
        <mxCell id="z9MHHe7EICh6K6NeDYxP-4" style="edgeStyle=orthogonalEdgeStyle;rounded=0;orthogonalLoop=1;jettySize=auto;html=1;exitX=1;exitY=0.75;exitDx=0;exitDy=0;" parent="1" source="CP4FYi2aOfL6vlJ2FLCF-43" target="CP4FYi2aOfL6vlJ2FLCF-96" edge="1">
          <mxGeometry relative="1" as="geometry">
            <Array as="points">
              <mxPoint x="600" y="630" />
            </Array>
            <mxPoint x="738" y="628" as="targetPoint" />
          </mxGeometry>
        </mxCell>
        <mxCell id="z9MHHe7EICh6K6NeDYxP-6" value="Auth" style="edgeLabel;html=1;align=center;verticalAlign=middle;resizable=0;points=[];" parent="z9MHHe7EICh6K6NeDYxP-4" vertex="1" connectable="0">
          <mxGeometry x="-0.3261" y="-2" relative="1" as="geometry">
            <mxPoint as="offset" />
          </mxGeometry>
        </mxCell>
        <mxCell id="CP4FYi2aOfL6vlJ2FLCF-43" value="Frontend" style="rounded=1;arcSize=10;dashed=0;fillColor=none;gradientColor=none;strokeWidth=2;align=left;verticalAlign=top;fontFamily=Helvetica;fontSize=16;fontColor=#666666;fontStyle=1;labelBackgroundColor=none;labelBorderColor=none;spacingLeft=5;" parent="1" vertex="1">
          <mxGeometry x="300" y="380" width="300.27" height="280" as="geometry" />
        </mxCell>
        <mxCell id="CP4FYi2aOfL6vlJ2FLCF-90" value="Data Store" style="rounded=1;arcSize=10;dashed=0;fillColor=none;gradientColor=none;strokeWidth=2;align=left;verticalAlign=top;fontFamily=Helvetica;fontSize=16;fontColor=#666666;fontStyle=1;labelBackgroundColor=none;labelBorderColor=none;spacingLeft=5;" parent="1" vertex="1">
          <mxGeometry x="1390" y="464" width="170" height="200" as="geometry" />
        </mxCell>
        <mxCell id="PIIRv9eCLGQA87d_PgNQ-9" style="edgeStyle=orthogonalEdgeStyle;rounded=0;orthogonalLoop=1;jettySize=auto;html=1;fontFamily=Helvetica;fontSize=12;fontColor=default;" parent="1" source="CP4FYi2aOfL6vlJ2FLCF-31" target="CP4FYi2aOfL6vlJ2FLCF-90" edge="1">
          <mxGeometry relative="1" as="geometry">
            <Array as="points">
              <mxPoint x="1370" y="570" />
              <mxPoint x="1370" y="570" />
            </Array>
          </mxGeometry>
        </mxCell>
        <mxCell id="CP4FYi2aOfL6vlJ2FLCF-41" style="edgeStyle=orthogonalEdgeStyle;rounded=0;orthogonalLoop=1;jettySize=auto;html=1;fontFamily=Helvetica;fontSize=12;fontColor=default;" parent="1" source="CP4FYi2aOfL6vlJ2FLCF-16" target="CP4FYi2aOfL6vlJ2FLCF-17" edge="1">
          <mxGeometry relative="1" as="geometry" />
        </mxCell>
        <mxCell id="CP4FYi2aOfL6vlJ2FLCF-42" value="Static Content" style="edgeLabel;html=1;align=center;verticalAlign=middle;resizable=0;points=[];fontFamily=Helvetica;fontSize=12;fontColor=default;fillColor=none;gradientColor=none;" parent="CP4FYi2aOfL6vlJ2FLCF-41" vertex="1" connectable="0">
          <mxGeometry x="0.0708" y="2" relative="1" as="geometry">
            <mxPoint as="offset" />
          </mxGeometry>
        </mxCell>
        <mxCell id="CP4FYi2aOfL6vlJ2FLCF-16" value="React Frontend Pages" style="shape=image;verticalLabelPosition=bottom;labelBackgroundColor=#ffe6cc;verticalAlign=top;aspect=fixed;imageAspect=0;image=https://upload.wikimedia.org/wikipedia/commons/thumb/a/a7/React-icon.svg/2300px-React-icon.svg.png;" parent="1" vertex="1">
          <mxGeometry x="406" y="410" width="80.54" height="70" as="geometry" />
        </mxCell>
        <mxCell id="CP4FYi2aOfL6vlJ2FLCF-17" value="S3&#xa;(Static Assets, html, Images)" style="shape=image;verticalLabelPosition=bottom;labelBackgroundColor=#ffe6cc;verticalAlign=top;aspect=fixed;imageAspect=0;image=https://cdn.worldvectorlogo.com/logos/amazon-s3-simple-storage-service.svg;" parent="1" vertex="1">
          <mxGeometry x="416.27" y="560" width="60" height="60" as="geometry" />
        </mxCell>
        <mxCell id="CP4FYi2aOfL6vlJ2FLCF-27" value="Buyer" style="outlineConnect=0;dashed=0;verticalLabelPosition=bottom;verticalAlign=top;align=center;html=1;shape=mxgraph.aws3.user;fillColor=#D2D3D3;gradientColor=none;fontFamily=Helvetica;fontSize=12;fontColor=default;" parent="1" vertex="1">
          <mxGeometry x="150.5" y="516.5" width="45" height="63" as="geometry" />
        </mxCell>
        <mxCell id="CP4FYi2aOfL6vlJ2FLCF-28" value="Seller" style="outlineConnect=0;dashed=0;verticalLabelPosition=bottom;verticalAlign=top;align=center;html=1;shape=mxgraph.aws3.users;fillColor=#D2D3D3;gradientColor=none;fontFamily=Helvetica;fontSize=12;fontColor=default;" parent="1" vertex="1">
          <mxGeometry x="140" y="419" width="66" height="63" as="geometry" />
        </mxCell>
        <mxCell id="CP4FYi2aOfL6vlJ2FLCF-34" value="&lt;div&gt;SNS verification&lt;/div&gt;" style="sketch=0;points=[[0,0,0],[0.25,0,0],[0.5,0,0],[0.75,0,0],[1,0,0],[0,1,0],[0.25,1,0],[0.5,1,0],[0.75,1,0],[1,1,0],[0,0.25,0],[0,0.5,0],[0,0.75,0],[1,0.25,0],[1,0.5,0],[1,0.75,0]];outlineConnect=0;fontColor=#232F3E;fillColor=#E7157B;strokeColor=#ffffff;dashed=0;verticalLabelPosition=bottom;verticalAlign=top;align=center;html=1;fontSize=12;fontStyle=0;aspect=fixed;shape=mxgraph.aws4.resourceIcon;resIcon=mxgraph.aws4.sns;fontFamily=Helvetica;" parent="1" vertex="1">
          <mxGeometry x="751.3599999999999" y="793" width="42" height="42" as="geometry" />
        </mxCell>
        <mxCell id="CP4FYi2aOfL6vlJ2FLCF-49" style="edgeStyle=orthogonalEdgeStyle;rounded=0;orthogonalLoop=1;jettySize=auto;html=1;fontFamily=Helvetica;fontSize=12;fontColor=default;entryX=0;entryY=0.5;entryDx=0;entryDy=0;entryPerimeter=0;" parent="1" source="CP4FYi2aOfL6vlJ2FLCF-43" target="CP4FYi2aOfL6vlJ2FLCF-92" edge="1">
          <mxGeometry relative="1" as="geometry">
            <mxPoint x="567.3800000000001" y="565" as="targetPoint" />
            <Array as="points">
              <mxPoint x="743" y="500" />
            </Array>
          </mxGeometry>
        </mxCell>
        <mxCell id="CP4FYi2aOfL6vlJ2FLCF-50" value="HTTP" style="edgeLabel;html=1;align=center;verticalAlign=top;resizable=0;points=[];fontFamily=Helvetica;fontSize=12;fontColor=default;fillColor=none;gradientColor=none;" parent="CP4FYi2aOfL6vlJ2FLCF-49" vertex="1" connectable="0">
          <mxGeometry x="0.2933" y="2" relative="1" as="geometry">
            <mxPoint as="offset" />
          </mxGeometry>
        </mxCell>
        <mxCell id="CP4FYi2aOfL6vlJ2FLCF-61" style="edgeStyle=orthogonalEdgeStyle;rounded=0;orthogonalLoop=1;jettySize=auto;html=1;fontFamily=Helvetica;fontSize=12;fontColor=default;entryX=-0.011;entryY=0.187;entryDx=0;entryDy=0;entryPerimeter=0;" parent="1" source="CP4FYi2aOfL6vlJ2FLCF-92" target="CP4FYi2aOfL6vlJ2FLCF-31" edge="1">
          <mxGeometry relative="1" as="geometry">
            <mxPoint x="855.63" y="559" as="sourcePoint" />
            <mxPoint x="865.63" y="559" as="targetPoint" />
          </mxGeometry>
        </mxCell>
        <mxCell id="CP4FYi2aOfL6vlJ2FLCF-92" value="API Gateway" style="sketch=0;points=[[0,0,0],[0.25,0,0],[0.5,0,0],[0.75,0,0],[1,0,0],[0,1,0],[0.25,1,0],[0.5,1,0],[0.75,1,0],[1,1,0],[0,0.25,0],[0,0.5,0],[0,0.75,0],[1,0.25,0],[1,0.5,0],[1,0.75,0]];outlineConnect=0;fontColor=#232F3E;fillColor=#E7157B;strokeColor=#ffffff;dashed=0;verticalLabelPosition=bottom;verticalAlign=top;align=center;html=1;fontSize=12;fontStyle=0;aspect=fixed;shape=mxgraph.aws4.resourceIcon;resIcon=mxgraph.aws4.api_gateway;fontFamily=Helvetica;" parent="1" vertex="1">
          <mxGeometry x="742.76" y="480" width="40" height="40" as="geometry" />
        </mxCell>
        <mxCell id="PIIRv9eCLGQA87d_PgNQ-15" value="DynamoDB&lt;br style=&quot;border-color: var(--border-color); color: rgb(0, 0, 0);&quot;&gt;&lt;span style=&quot;color: rgb(0, 0, 0);&quot;&gt;(products, customers,&lt;/span&gt;&lt;br style=&quot;border-color: var(--border-color); color: rgb(0, 0, 0);&quot;&gt;&lt;span style=&quot;color: rgb(0, 0, 0);&quot;&gt;transactions)&lt;/span&gt;&lt;div&gt;&lt;span style=&quot;color: rgb(0, 0, 0);&quot;&gt;Instance per Microservice&lt;/span&gt;&lt;/div&gt;" style="sketch=0;points=[[0,0,0],[0.25,0,0],[0.5,0,0],[0.75,0,0],[1,0,0],[0,1,0],[0.25,1,0],[0.5,1,0],[0.75,1,0],[1,1,0],[0,0.25,0],[0,0.5,0],[0,0.75,0],[1,0.25,0],[1,0.5,0],[1,0.75,0]];outlineConnect=0;fontColor=#232F3E;fillColor=#C925D1;strokeColor=#ffffff;dashed=0;verticalLabelPosition=bottom;verticalAlign=top;align=center;html=1;fontSize=12;fontStyle=0;aspect=fixed;shape=mxgraph.aws4.resourceIcon;resIcon=mxgraph.aws4.dynamodb;fontFamily=Helvetica;" parent="1" vertex="1">
          <mxGeometry x="1436" y="509" width="78" height="78" as="geometry" />
        </mxCell>
        <mxCell id="PIIRv9eCLGQA87d_PgNQ-49" value="&lt;font size=&quot;1&quot; style=&quot;&quot;&gt;&lt;b style=&quot;font-size: 30px;&quot;&gt;Architecture Overview&lt;/b&gt;&lt;/font&gt;" style="text;html=1;align=center;verticalAlign=middle;whiteSpace=wrap;rounded=0;fontFamily=Helvetica;fontSize=12;fontColor=default;" parent="1" vertex="1">
          <mxGeometry x="10" y="282" width="340" height="80" as="geometry" />
        </mxCell>
        <mxCell id="36xQVcrOsJEa792103js-2" style="edgeStyle=orthogonalEdgeStyle;rounded=0;orthogonalLoop=1;jettySize=auto;html=1;entryX=-0.003;entryY=0.438;entryDx=0;entryDy=0;entryPerimeter=0;exitX=1;exitY=0.5;exitDx=0;exitDy=0;" parent="1" source="iM47y16x09_4lo22RBM1-7" target="CP4FYi2aOfL6vlJ2FLCF-43" edge="1">
          <mxGeometry relative="1" as="geometry" />
        </mxCell>
        <mxCell id="GQJE-OWLtPPY22i62exL-8" value="" style="group" parent="1" vertex="1" connectable="0">
          <mxGeometry x="1505.63" y="362" width="60" height="62" as="geometry" />
        </mxCell>
        <mxCell id="CP4FYi2aOfL6vlJ2FLCF-32" value="" style="dashed=0;html=1;shape=mxgraph.aws3.cloud;fillColor=#F58536;gradientColor=none;dashed=0;align=left;verticalAlign=middle;fontFamily=Helvetica;fontSize=12;fontColor=default;" parent="GQJE-OWLtPPY22i62exL-8" vertex="1">
          <mxGeometry width="52" height="36" as="geometry" />
        </mxCell>
        <mxCell id="CP4FYi2aOfL6vlJ2FLCF-86" value="Localstack" style="text;html=1;align=center;verticalAlign=middle;whiteSpace=wrap;rounded=0;fontFamily=Helvetica;fontSize=12;fontColor=default;" parent="GQJE-OWLtPPY22i62exL-8" vertex="1">
          <mxGeometry y="32" width="60" height="30" as="geometry" />
        </mxCell>
        <mxCell id="CP4FYi2aOfL6vlJ2FLCF-96" value="AWS Amplify&amp;nbsp;&lt;div&gt;UI Authenticator&lt;/div&gt;" style="sketch=0;points=[[0,0,0],[0.25,0,0],[0.5,0,0],[0.75,0,0],[1,0,0],[0,1,0],[0.25,1,0],[0.5,1,0],[0.75,1,0],[1,1,0],[0,0.25,0],[0,0.5,0],[0,0.75,0],[1,0.25,0],[1,0.5,0],[1,0.75,0]];outlineConnect=0;fontColor=#232F3E;fillColor=#DD344C;strokeColor=#ffffff;dashed=0;verticalLabelPosition=bottom;verticalAlign=top;align=center;html=1;fontSize=12;fontStyle=0;aspect=fixed;shape=mxgraph.aws4.resourceIcon;resIcon=mxgraph.aws4.amplify;fontFamily=Helvetica;" parent="1" vertex="1">
          <mxGeometry x="748.16" y="620.8" width="45.2" height="45.2" as="geometry" />
        </mxCell>
        <mxCell id="CP4FYi2aOfL6vlJ2FLCF-94" value="AWS Cognito&lt;div&gt;Userpool&lt;/div&gt;" style="sketch=0;points=[[0,0,0],[0.25,0,0],[0.5,0,0],[0.75,0,0],[1,0,0],[0,1,0],[0.25,1,0],[0.5,1,0],[0.75,1,0],[1,1,0],[0,0.25,0],[0,0.5,0],[0,0.75,0],[1,0.25,0],[1,0.5,0],[1,0.75,0]];outlineConnect=0;fontColor=#232F3E;fillColor=#DD344C;strokeColor=#ffffff;dashed=0;verticalLabelPosition=bottom;verticalAlign=top;align=center;html=1;fontSize=12;fontStyle=0;aspect=fixed;shape=mxgraph.aws4.resourceIcon;resIcon=mxgraph.aws4.cognito;fontFamily=Helvetica;" parent="1" vertex="1">
          <mxGeometry x="748.16" y="707" width="46.4" height="46.4" as="geometry" />
        </mxCell>
        <mxCell id="z9MHHe7EICh6K6NeDYxP-7" style="edgeStyle=orthogonalEdgeStyle;rounded=0;orthogonalLoop=1;jettySize=auto;html=1;entryX=1;entryY=0.5;entryDx=0;entryDy=0;entryPerimeter=0;exitX=1;exitY=0.5;exitDx=0;exitDy=0;exitPerimeter=0;" parent="1" source="CP4FYi2aOfL6vlJ2FLCF-96" target="CP4FYi2aOfL6vlJ2FLCF-94" edge="1">
          <mxGeometry relative="1" as="geometry">
            <Array as="points">
              <mxPoint x="815" y="643" />
              <mxPoint x="815" y="730" />
              <mxPoint x="795" y="730" />
            </Array>
          </mxGeometry>
        </mxCell>
        <mxCell id="iM47y16x09_4lo22RBM1-4" style="edgeStyle=orthogonalEdgeStyle;rounded=0;orthogonalLoop=1;jettySize=auto;html=1;entryX=1;entryY=0.5;entryDx=0;entryDy=0;entryPerimeter=0;" edge="1" parent="1" source="CP4FYi2aOfL6vlJ2FLCF-94" target="CP4FYi2aOfL6vlJ2FLCF-34">
          <mxGeometry relative="1" as="geometry">
            <Array as="points">
              <mxPoint x="815" y="750" />
              <mxPoint x="815" y="814" />
            </Array>
          </mxGeometry>
        </mxCell>
        <mxCell id="iM47y16x09_4lo22RBM1-5" style="edgeStyle=orthogonalEdgeStyle;rounded=0;orthogonalLoop=1;jettySize=auto;html=1;entryX=0.75;entryY=1;entryDx=0;entryDy=0;" edge="1" parent="1" source="CP4FYi2aOfL6vlJ2FLCF-34" target="iM47y16x09_4lo22RBM1-7">
          <mxGeometry relative="1" as="geometry">
            <mxPoint x="240" y="560" as="targetPoint" />
            <Array as="points">
              <mxPoint x="201" y="814" />
            </Array>
          </mxGeometry>
        </mxCell>
        <mxCell id="iM47y16x09_4lo22RBM1-6" style="edgeStyle=orthogonalEdgeStyle;rounded=0;orthogonalLoop=1;jettySize=auto;html=1;exitX=0.5;exitY=1;exitDx=0;exitDy=0;" edge="1" parent="1" source="iM47y16x09_4lo22RBM1-7">
          <mxGeometry relative="1" as="geometry">
            <mxPoint x="750" y="830" as="targetPoint" />
            <Array as="points">
              <mxPoint x="170" y="642" />
              <mxPoint x="170" y="830" />
            </Array>
          </mxGeometry>
        </mxCell>
        <mxCell id="iM47y16x09_4lo22RBM1-7" value="Users" style="rounded=1;arcSize=10;dashed=0;fillColor=none;gradientColor=none;strokeWidth=2;align=left;verticalAlign=top;fontFamily=Helvetica;fontSize=12;fontColor=default;" vertex="1" parent="1">
          <mxGeometry x="118" y="362" width="110" height="280" as="geometry" />
        </mxCell>
        <mxCell id="VhN34SZRZwhra8gQvhZY-6" style="edgeStyle=orthogonalEdgeStyle;rounded=0;orthogonalLoop=1;jettySize=auto;html=1;entryX=0.5;entryY=1;entryDx=0;entryDy=0;" edge="1" parent="1" source="VhN34SZRZwhra8gQvhZY-5" target="CP4FYi2aOfL6vlJ2FLCF-90">
          <mxGeometry relative="1" as="geometry" />
        </mxCell>
        <mxCell id="VhN34SZRZwhra8gQvhZY-5" value="Load Mockdata on Startup" style="rounded=0;whiteSpace=wrap;html=1;" vertex="1" parent="1">
          <mxGeometry x="1415" y="700.2" width="120" height="60" as="geometry" />
        </mxCell>
        <mxCell id="VhN34SZRZwhra8gQvhZY-8" value="&lt;span style=&quot;text-wrap: nowrap;&quot;&gt;Product Service&lt;/span&gt;" style="rounded=1;whiteSpace=wrap;html=1;align=left;verticalAlign=top;fontFamily=Helvetica;fontSize=12;fontColor=default;fillColor=none;gradientColor=none;dashed=1;strokeColor=#5e5e5e;spacingLeft=8;" vertex="1" parent="1">
          <mxGeometry x="910" y="477" width="340" height="183" as="geometry" />
        </mxCell>
        <mxCell id="VhN34SZRZwhra8gQvhZY-3" value="" style="outlineConnect=0;dashed=0;verticalLabelPosition=middle;verticalAlign=middle;align=left;html=1;shape=mxgraph.aws3.lambda_function;fillColor=#F58534;gradientColor=none;fontFamily=Helvetica;fontSize=12;fontColor=default;aspect=fixed;labelPosition=right;" vertex="1" parent="1">
          <mxGeometry x="1221.25" y="464" width="28.75" height="30" as="geometry" />
        </mxCell>
        <mxCell id="MkC6V0lKTlH8oQcmFAt--2" value="Get Product" style="rounded=0;whiteSpace=wrap;html=1;" vertex="1" parent="1">
          <mxGeometry x="940" y="512" width="90" height="31" as="geometry" />
        </mxCell>
        <mxCell id="MkC6V0lKTlH8oQcmFAt--3" value="Post Product" style="rounded=0;whiteSpace=wrap;html=1;" vertex="1" parent="1">
          <mxGeometry x="940" y="549.5" width="90" height="30.5" as="geometry" />
        </mxCell>
        <mxCell id="MkC6V0lKTlH8oQcmFAt--4" value="Delete Product" style="rounded=0;whiteSpace=wrap;html=1;" vertex="1" parent="1">
          <mxGeometry x="940" y="587" width="90" height="30" as="geometry" />
        </mxCell>
        <mxCell id="MkC6V0lKTlH8oQcmFAt--5" value="Get Category" style="rounded=0;whiteSpace=wrap;html=1;" vertex="1" parent="1">
          <mxGeometry x="1040" y="512" width="90" height="30" as="geometry" />
        </mxCell>
        <mxCell id="MkC6V0lKTlH8oQcmFAt--6" value="Get Distributor" style="rounded=0;whiteSpace=wrap;html=1;" vertex="1" parent="1">
          <mxGeometry x="1040" y="549.5" width="90" height="30" as="geometry" />
        </mxCell>
        <mxCell id="MkC6V0lKTlH8oQcmFAt--7" value="Get Product Comment" style="rounded=0;whiteSpace=wrap;html=1;fontSize=12;" vertex="1" parent="1">
          <mxGeometry x="1040" y="587" width="90" height="30" as="geometry" />
        </mxCell>
        <mxCell id="MkC6V0lKTlH8oQcmFAt--9" value="Get Product Detail" style="rounded=0;whiteSpace=wrap;html=1;fontSize=12;" vertex="1" parent="1">
          <mxGeometry x="1136" y="512" width="90" height="30" as="geometry" />
        </mxCell>
        <mxCell id="MkC6V0lKTlH8oQcmFAt--10" value="Post Product&lt;div&gt;Batch&lt;/div&gt;" style="rounded=0;whiteSpace=wrap;html=1;" vertex="1" parent="1">
          <mxGeometry x="1136" y="549.5" width="90" height="30.5" as="geometry" />
        </mxCell>
        <mxCell id="MkC6V0lKTlH8oQcmFAt--11" value="Post Product Comment" style="rounded=0;whiteSpace=wrap;html=1;" vertex="1" parent="1">
          <mxGeometry x="1136" y="587" width="90" height="30.5" as="geometry" />
        </mxCell>
        <mxCell id="MkC6V0lKTlH8oQcmFAt--12" value="Post Product Detail" style="rounded=0;whiteSpace=wrap;html=1;" vertex="1" parent="1">
          <mxGeometry x="940" y="623.5" width="90" height="30.5" as="geometry" />
        </mxCell>
        <mxCell id="MkC6V0lKTlH8oQcmFAt--13" value="&lt;span style=&quot;text-wrap: nowrap;&quot;&gt;Cart Service&lt;/span&gt;" style="rounded=1;whiteSpace=wrap;html=1;align=left;verticalAlign=top;fontFamily=Helvetica;fontSize=12;fontColor=default;fillColor=none;gradientColor=none;dashed=1;strokeColor=#5e5e5e;spacingLeft=8;" vertex="1" parent="1">
          <mxGeometry x="910" y="670" width="150" height="190" as="geometry" />
        </mxCell>
        <mxCell id="MkC6V0lKTlH8oQcmFAt--14" value="Get Product" style="rounded=0;whiteSpace=wrap;html=1;" vertex="1" parent="1">
          <mxGeometry x="940" y="705" width="90" height="31" as="geometry" />
        </mxCell>
        <mxCell id="MkC6V0lKTlH8oQcmFAt--15" value="Post Product" style="rounded=0;whiteSpace=wrap;html=1;" vertex="1" parent="1">
          <mxGeometry x="940" y="742.5" width="90" height="30.5" as="geometry" />
        </mxCell>
        <mxCell id="MkC6V0lKTlH8oQcmFAt--16" value="Delete Product" style="rounded=0;whiteSpace=wrap;html=1;" vertex="1" parent="1">
          <mxGeometry x="940" y="780" width="90" height="30" as="geometry" />
        </mxCell>
        <mxCell id="CP4FYi2aOfL6vlJ2FLCF-76" value="" style="outlineConnect=0;dashed=0;verticalLabelPosition=middle;verticalAlign=middle;align=left;html=1;shape=mxgraph.aws3.lambda_function;fillColor=#F58534;gradientColor=none;fontFamily=Helvetica;fontSize=12;fontColor=default;aspect=fixed;labelPosition=right;" parent="1" vertex="1">
          <mxGeometry x="1040" y="664" width="28.75" height="30" as="geometry" />
        </mxCell>
        <mxCell id="MkC6V0lKTlH8oQcmFAt--17" value="Put Product" style="rounded=0;whiteSpace=wrap;html=1;" vertex="1" parent="1">
          <mxGeometry x="940" y="820" width="90" height="30" as="geometry" />
        </mxCell>
        <mxCell id="iBPYp409PYg92SyamlXE-1" value="&lt;span style=&quot;text-wrap: nowrap;&quot;&gt;Order Service (TBD)&lt;/span&gt;" style="rounded=1;whiteSpace=wrap;html=1;align=left;verticalAlign=top;fontFamily=Helvetica;fontSize=12;fontColor=default;fillColor=none;gradientColor=none;dashed=1;strokeColor=#5e5e5e;spacingLeft=8;" vertex="1" parent="1">
          <mxGeometry x="1076" y="670" width="150" height="170" as="geometry" />
        </mxCell>
        <mxCell id="iBPYp409PYg92SyamlXE-2" value="Get Order" style="rounded=0;whiteSpace=wrap;html=1;" vertex="1" parent="1">
          <mxGeometry x="1106" y="705" width="90" height="31" as="geometry" />
        </mxCell>
        <mxCell id="iBPYp409PYg92SyamlXE-4" value="Post&lt;span style=&quot;color: rgba(0, 0, 0, 0); font-family: monospace; font-size: 0px; text-align: start; text-wrap: nowrap;&quot;&gt;%3CmxGraphModel%3E%3Croot%3E%3CmxCell%20id%3D%220%22%2F%3E%3CmxCell%20id%3D%221%22%20parent%3D%220%22%2F%3E%3CmxCell%20id%3D%222%22%20value%3D%22Get%20Order%22%20style%3D%22rounded%3D0%3BwhiteSpace%3Dwrap%3Bhtml%3D1%3B%22%20vertex%3D%221%22%20parent%3D%221%22%3E%3CmxGeometry%20x%3D%221106%22%20y%3D%22705%22%20width%3D%2290%22%20height%3D%2231%22%20as%3D%22geometry%22%2F%3E%3C%2FmxCell%3E%3C%2Froot%3E%3C%2FmxGraphModel%3E&lt;/span&gt;&amp;nbsp;Order" style="rounded=0;whiteSpace=wrap;html=1;" vertex="1" parent="1">
          <mxGeometry x="1106" y="742.5" width="90" height="31" as="geometry" />
        </mxCell>
        <mxCell id="iBPYp409PYg92SyamlXE-6" value="Delete Order" style="rounded=0;whiteSpace=wrap;html=1;" vertex="1" parent="1">
          <mxGeometry x="1106" y="780" width="90" height="31" as="geometry" />
        </mxCell>
        <mxCell id="iBPYp409PYg92SyamlXE-7" value="" style="outlineConnect=0;dashed=0;verticalLabelPosition=middle;verticalAlign=middle;align=left;html=1;shape=mxgraph.aws3.lambda_function;fillColor=#F58534;gradientColor=none;fontFamily=Helvetica;fontSize=12;fontColor=default;aspect=fixed;labelPosition=right;" vertex="1" parent="1">
          <mxGeometry x="1206" y="664" width="28.75" height="30" as="geometry" />
        </mxCell>
      </root>
    </mxGraphModel>
  </diagram>
  <diagram id="9giXu1Tf5nbz0yrTLThF" name="Microservices Backlog">
    <mxGraphModel dx="-748" dy="949" grid="1" gridSize="10" guides="1" tooltips="1" connect="1" arrows="1" fold="1" page="1" pageScale="1" pageWidth="827" pageHeight="1169" math="0" shadow="0">
      <root>
        <mxCell id="0" />
        <mxCell id="1" parent="0" />
        <mxCell id="50fMvPp7s6uxtOwtO2bi-1" value="" style="rounded=0;whiteSpace=wrap;html=1;align=left;verticalAlign=middle;fontFamily=Helvetica;fontSize=12;fillColor=#d5e8d4;strokeColor=#82b366;" parent="1" vertex="1">
          <mxGeometry x="2541" y="70" width="1530" height="900" as="geometry" />
        </mxCell>
        <mxCell id="50fMvPp7s6uxtOwtO2bi-6" value="" style="group" parent="1" vertex="1" connectable="0">
          <mxGeometry x="2590" y="90" width="390" height="190" as="geometry" />
        </mxCell>
        <mxCell id="50fMvPp7s6uxtOwtO2bi-7" value="Product Search" style="rounded=1;whiteSpace=wrap;html=1;align=left;verticalAlign=top;fontFamily=Helvetica;fontSize=12;fontColor=default;fillColor=none;gradientColor=none;dashed=1;strokeColor=#5e5e5e;spacingLeft=8;" parent="50fMvPp7s6uxtOwtO2bi-6" vertex="1">
          <mxGeometry width="390" height="190" as="geometry" />
        </mxCell>
        <mxCell id="50fMvPp7s6uxtOwtO2bi-8" value="API Gateway" style="sketch=0;outlineConnect=0;fontColor=#232F3E;gradientColor=none;fillColor=#E7157B;strokeColor=none;dashed=0;verticalLabelPosition=bottom;verticalAlign=top;align=center;html=1;fontSize=12;fontStyle=0;aspect=fixed;pointerEvents=1;shape=mxgraph.aws4.endpoint;fontFamily=Helvetica;" parent="50fMvPp7s6uxtOwtO2bi-6" vertex="1">
          <mxGeometry x="38.75" y="39.5" width="54" height="54" as="geometry" />
        </mxCell>
        <mxCell id="50fMvPp7s6uxtOwtO2bi-9" value="Lambda Function&lt;br&gt;Logic" style="outlineConnect=0;dashed=0;verticalLabelPosition=bottom;verticalAlign=top;align=center;html=1;shape=mxgraph.aws3.lambda_function;fillColor=#F58534;gradientColor=none;fontFamily=Helvetica;fontSize=12;fontColor=default;" parent="50fMvPp7s6uxtOwtO2bi-6" vertex="1">
          <mxGeometry x="167.25" y="39" width="55.5" height="54" as="geometry" />
        </mxCell>
        <mxCell id="50fMvPp7s6uxtOwtO2bi-10" value="&lt;span style=&quot;color: rgb(51, 51, 51); font-family: AmazonEmber, &amp;quot;Helvetica Neue&amp;quot;, Helvetica, Arial, sans-serif; font-size: 10px; font-style: normal; font-variant-ligatures: normal; font-variant-caps: normal; font-weight: 400; letter-spacing: normal; orphans: 2; text-align: left; text-indent: 0px; text-transform: none; widows: 2; word-spacing: 0px; -webkit-text-stroke-width: 0px; text-decoration-thickness: initial; text-decoration-style: initial; text-decoration-color: initial; float: none; display: inline !important;&quot;&gt;API Gateway: allows users to search without authentication&lt;br style=&quot;font-size: 10px;&quot;&gt;Lambda formats the data&lt;br style=&quot;font-size: 10px;&quot;&gt;ES: stores product data, which is updated whenever product-related data changes&lt;br style=&quot;font-size: 10px;&quot;&gt;&lt;/span&gt;" style="text;whiteSpace=wrap;html=1;fontFamily=Helvetica;fontSize=10;fontColor=default;" parent="50fMvPp7s6uxtOwtO2bi-6" vertex="1">
          <mxGeometry x="18.75" y="130" width="340" height="60" as="geometry" />
        </mxCell>
        <mxCell id="50fMvPp7s6uxtOwtO2bi-11" style="edgeStyle=orthogonalEdgeStyle;rounded=0;orthogonalLoop=1;jettySize=auto;html=1;entryX=0;entryY=0.5;entryDx=0;entryDy=0;entryPerimeter=0;fontFamily=Helvetica;fontSize=12;fontColor=default;" parent="50fMvPp7s6uxtOwtO2bi-6" source="50fMvPp7s6uxtOwtO2bi-8" target="50fMvPp7s6uxtOwtO2bi-9" edge="1">
          <mxGeometry relative="1" as="geometry" />
        </mxCell>
        <mxCell id="50fMvPp7s6uxtOwtO2bi-12" value="Elastic Search Service&lt;br&gt;(ES)" style="outlineConnect=0;dashed=0;verticalLabelPosition=bottom;verticalAlign=top;align=center;html=1;shape=mxgraph.aws3.elasticsearch_service;fillColor=#F58534;gradientColor=none;fontFamily=Helvetica;fontSize=12;fontColor=default;aspect=fixed;" parent="50fMvPp7s6uxtOwtO2bi-6" vertex="1">
          <mxGeometry x="288.75" y="32.25" width="48.13" height="57.75" as="geometry" />
        </mxCell>
        <mxCell id="50fMvPp7s6uxtOwtO2bi-13" style="edgeStyle=orthogonalEdgeStyle;rounded=0;orthogonalLoop=1;jettySize=auto;html=1;fontFamily=Helvetica;fontSize=12;fontColor=default;" parent="50fMvPp7s6uxtOwtO2bi-6" source="50fMvPp7s6uxtOwtO2bi-9" target="50fMvPp7s6uxtOwtO2bi-12" edge="1">
          <mxGeometry relative="1" as="geometry">
            <mxPoint x="298.75" y="66.00000000000023" as="targetPoint" />
            <Array as="points">
              <mxPoint x="268.75" y="66" />
              <mxPoint x="268.75" y="66" />
            </Array>
          </mxGeometry>
        </mxCell>
        <mxCell id="50fMvPp7s6uxtOwtO2bi-14" value="Shopping Cart" style="rounded=1;whiteSpace=wrap;html=1;align=left;verticalAlign=top;fontFamily=Helvetica;fontSize=12;fontColor=default;fillColor=none;gradientColor=none;dashed=1;strokeColor=#5e5e5e;spacingLeft=8;" parent="1" vertex="1">
          <mxGeometry x="3098" y="615" width="390" height="130" as="geometry" />
        </mxCell>
        <mxCell id="50fMvPp7s6uxtOwtO2bi-15" value="API Gateway" style="sketch=0;outlineConnect=0;fontColor=#232F3E;gradientColor=none;fillColor=#E7157B;strokeColor=none;dashed=0;verticalLabelPosition=bottom;verticalAlign=top;align=center;html=1;fontSize=12;fontStyle=0;aspect=fixed;pointerEvents=1;shape=mxgraph.aws4.endpoint;fontFamily=Helvetica;" parent="1" vertex="1">
          <mxGeometry x="3126.75" y="647.5" width="54" height="54" as="geometry" />
        </mxCell>
        <mxCell id="50fMvPp7s6uxtOwtO2bi-16" style="edgeStyle=orthogonalEdgeStyle;rounded=0;orthogonalLoop=1;jettySize=auto;html=1;fontFamily=Helvetica;fontSize=12;fontColor=default;" parent="1" source="50fMvPp7s6uxtOwtO2bi-17" target="50fMvPp7s6uxtOwtO2bi-19" edge="1">
          <mxGeometry relative="1" as="geometry" />
        </mxCell>
        <mxCell id="50fMvPp7s6uxtOwtO2bi-17" value="Lambda Function&lt;br&gt;Logic" style="outlineConnect=0;dashed=0;verticalLabelPosition=bottom;verticalAlign=top;align=center;html=1;shape=mxgraph.aws3.lambda_function;fillColor=#F58534;gradientColor=none;fontFamily=Helvetica;fontSize=12;fontColor=default;" parent="1" vertex="1">
          <mxGeometry x="3255.25" y="647" width="55.5" height="54" as="geometry" />
        </mxCell>
        <mxCell id="50fMvPp7s6uxtOwtO2bi-18" style="edgeStyle=orthogonalEdgeStyle;rounded=0;orthogonalLoop=1;jettySize=auto;html=1;entryX=0;entryY=0.5;entryDx=0;entryDy=0;entryPerimeter=0;fontFamily=Helvetica;fontSize=12;fontColor=default;" parent="1" source="50fMvPp7s6uxtOwtO2bi-15" target="50fMvPp7s6uxtOwtO2bi-17" edge="1">
          <mxGeometry relative="1" as="geometry" />
        </mxCell>
        <mxCell id="50fMvPp7s6uxtOwtO2bi-19" value="DynamoDB&lt;br&gt;Data Persistence" style="sketch=0;points=[[0,0,0],[0.25,0,0],[0.5,0,0],[0.75,0,0],[1,0,0],[0,1,0],[0.25,1,0],[0.5,1,0],[0.75,1,0],[1,1,0],[0,0.25,0],[0,0.5,0],[0,0.75,0],[1,0.25,0],[1,0.5,0],[1,0.75,0]];outlineConnect=0;fontColor=#232F3E;fillColor=#C925D1;strokeColor=#ffffff;dashed=0;verticalLabelPosition=bottom;verticalAlign=top;align=center;html=1;fontSize=12;fontStyle=0;aspect=fixed;shape=mxgraph.aws4.resourceIcon;resIcon=mxgraph.aws4.dynamodb;fontFamily=Helvetica;" parent="1" vertex="1">
          <mxGeometry x="3378" y="645.3499999999999" width="57" height="57" as="geometry" />
        </mxCell>
        <mxCell id="50fMvPp7s6uxtOwtO2bi-21" value="Order Microservices" style="rounded=1;arcSize=10;dashed=0;fillColor=none;gradientColor=none;strokeWidth=2;align=left;verticalAlign=top;fontFamily=Helvetica;fontSize=16;fontColor=#666666;fontStyle=1;labelBackgroundColor=none;labelBorderColor=none;spacingLeft=16;" parent="1" vertex="1">
          <mxGeometry x="2581" y="490" width="450" height="380" as="geometry" />
        </mxCell>
        <mxCell id="50fMvPp7s6uxtOwtO2bi-22" value="Payments" style="rounded=1;whiteSpace=wrap;html=1;align=left;verticalAlign=top;fontFamily=Helvetica;fontSize=12;fontColor=default;fillColor=none;gradientColor=none;dashed=1;strokeColor=#5e5e5e;spacingLeft=8;" parent="1" vertex="1">
          <mxGeometry x="2601" y="530" width="180" height="130" as="geometry" />
        </mxCell>
        <mxCell id="50fMvPp7s6uxtOwtO2bi-23" value="Orders" style="rounded=1;whiteSpace=wrap;html=1;align=left;verticalAlign=top;fontFamily=Helvetica;fontSize=12;fontColor=default;fillColor=none;gradientColor=none;dashed=1;strokeColor=#5e5e5e;spacingLeft=8;" parent="1" vertex="1">
          <mxGeometry x="2631" y="560" width="180" height="130" as="geometry" />
        </mxCell>
        <mxCell id="50fMvPp7s6uxtOwtO2bi-24" value="Returns" style="rounded=1;whiteSpace=wrap;html=1;align=left;verticalAlign=top;fontFamily=Helvetica;fontSize=12;fontColor=default;fillColor=none;gradientColor=none;dashed=1;strokeColor=#5e5e5e;spacingLeft=8;" parent="1" vertex="1">
          <mxGeometry x="2671" y="590" width="180" height="130" as="geometry" />
        </mxCell>
        <mxCell id="50fMvPp7s6uxtOwtO2bi-27" value="advertising, buying, shipping, payments, tracking purchase status, and invoicing, as well as profile creation and management." style="text;whiteSpace=wrap;html=1;" parent="1" vertex="1">
          <mxGeometry x="3180.75" y="765" width="245" height="50" as="geometry" />
        </mxCell>
        <mxCell id="50fMvPp7s6uxtOwtO2bi-31" value="Invoice" style="rounded=1;whiteSpace=wrap;html=1;align=left;verticalAlign=top;fontFamily=Helvetica;fontSize=12;fontColor=default;fillColor=none;gradientColor=none;dashed=1;strokeColor=#5e5e5e;spacingLeft=8;" parent="1" vertex="1">
          <mxGeometry x="2711" y="623" width="180" height="130" as="geometry" />
        </mxCell>
        <mxCell id="50fMvPp7s6uxtOwtO2bi-34" value="Order Status" style="rounded=1;whiteSpace=wrap;html=1;align=left;verticalAlign=top;fontFamily=Helvetica;fontSize=12;fontColor=default;fillColor=none;gradientColor=none;dashed=1;strokeColor=#5e5e5e;spacingLeft=8;" parent="1" vertex="1">
          <mxGeometry x="2761" y="650" width="180" height="130" as="geometry" />
        </mxCell>
        <mxCell id="50fMvPp7s6uxtOwtO2bi-46" value="Questions:&amp;nbsp;&lt;div style=&quot;font-size: 20px;&quot;&gt;Do we mock 3rd Party services like Payment, PIM, CRM&lt;/div&gt;&lt;div style=&quot;font-size: 20px;&quot;&gt;Do we need a seperate Data Store if we handle everything with&lt;/div&gt;&lt;div style=&quot;font-size: 20px;&quot;&gt;DynamoDB in the Microservices, SQS and Event Bus&lt;/div&gt;&lt;div style=&quot;font-size: 20px;&quot;&gt;&lt;br&gt;&lt;/div&gt;&lt;div style=&quot;font-size: 20px;&quot;&gt;Shop Product usage allowed&lt;/div&gt;" style="text;html=1;align=center;verticalAlign=middle;resizable=0;points=[];autosize=1;strokeColor=none;fillColor=none;fontSize=20;" parent="1" vertex="1">
          <mxGeometry x="2570" y="990" width="580" height="160" as="geometry" />
        </mxCell>
        <mxCell id="ITpf4biujsfm9cVgM0wI-1" value="" style="rounded=1;whiteSpace=wrap;html=1;align=left;verticalAlign=top;fontFamily=Helvetica;fontSize=12;fontColor=default;fillColor=none;gradientColor=none;dashed=1;strokeColor=#5e5e5e;spacingLeft=8;" vertex="1" parent="1">
          <mxGeometry x="3298" y="326" width="430" height="190" as="geometry" />
        </mxCell>
        <mxCell id="ITpf4biujsfm9cVgM0wI-2" value="" style="rounded=1;whiteSpace=wrap;html=1;align=left;verticalAlign=top;fontFamily=Helvetica;fontSize=12;fontColor=default;fillColor=none;gradientColor=none;dashed=1;strokeColor=#5e5e5e;spacingLeft=8;" vertex="1" parent="1">
          <mxGeometry x="3298" y="120" width="400" height="190" as="geometry" />
        </mxCell>
        <mxCell id="ITpf4biujsfm9cVgM0wI-3" value="Shop Profilemgmt" style="outlineConnect=0;dashed=0;verticalLabelPosition=middle;verticalAlign=middle;align=left;html=1;shape=mxgraph.aws3.lambda_function;fillColor=#F58534;gradientColor=none;fontFamily=Helvetica;fontSize=12;fontColor=default;aspect=fixed;labelPosition=right;" vertex="1" parent="1">
          <mxGeometry x="3323.32" y="160" width="28.75" height="30" as="geometry" />
        </mxCell>
        <mxCell id="ITpf4biujsfm9cVgM0wI-4" value="Order Management" style="outlineConnect=0;dashed=0;verticalLabelPosition=middle;verticalAlign=middle;align=left;html=1;shape=mxgraph.aws3.lambda_function;fillColor=#F58534;gradientColor=none;fontFamily=Helvetica;fontSize=12;fontColor=default;aspect=fixed;labelPosition=right;" vertex="1" parent="1">
          <mxGeometry x="3323.32" y="200" width="28.75" height="30" as="geometry" />
        </mxCell>
        <mxCell id="ITpf4biujsfm9cVgM0wI-5" value="Invoice" style="outlineConnect=0;dashed=0;verticalLabelPosition=middle;verticalAlign=middle;align=left;html=1;shape=mxgraph.aws3.lambda_function;fillColor=#F58534;gradientColor=none;fontFamily=Helvetica;fontSize=12;fontColor=default;aspect=fixed;labelPosition=right;" vertex="1" parent="1">
          <mxGeometry x="3473" y="200" width="28.75" height="30" as="geometry" />
        </mxCell>
        <mxCell id="ITpf4biujsfm9cVgM0wI-6" value="Analytics" style="outlineConnect=0;dashed=0;verticalLabelPosition=middle;verticalAlign=middle;align=left;html=1;shape=mxgraph.aws3.lambda_function;fillColor=#F58534;gradientColor=none;fontFamily=Helvetica;fontSize=12;fontColor=default;aspect=fixed;labelPosition=right;" vertex="1" parent="1">
          <mxGeometry x="3473" y="255" width="28.75" height="30" as="geometry" />
        </mxCell>
        <mxCell id="ITpf4biujsfm9cVgM0wI-7" value="Product Management" style="outlineConnect=0;dashed=0;verticalLabelPosition=middle;verticalAlign=middle;align=left;html=1;shape=mxgraph.aws3.lambda_function;fillColor=#F58534;gradientColor=none;fontFamily=Helvetica;fontSize=12;fontColor=default;aspect=fixed;labelPosition=right;" vertex="1" parent="1">
          <mxGeometry x="3471.75" y="160" width="28.75" height="30" as="geometry" />
        </mxCell>
        <mxCell id="ITpf4biujsfm9cVgM0wI-8" value="Blog Posts" style="outlineConnect=0;dashed=0;verticalLabelPosition=middle;verticalAlign=middle;align=left;html=1;shape=mxgraph.aws3.lambda_function;fillColor=#F58534;gradientColor=none;fontFamily=Helvetica;fontSize=12;fontColor=default;aspect=fixed;labelPosition=right;" vertex="1" parent="1">
          <mxGeometry x="3323.3199999999997" y="255" width="28.75" height="30" as="geometry" />
        </mxCell>
        <mxCell id="ITpf4biujsfm9cVgM0wI-9" value="Buyer Accountmgmt" style="outlineConnect=0;dashed=0;verticalLabelPosition=middle;verticalAlign=middle;align=left;html=1;shape=mxgraph.aws3.lambda_function;fillColor=#F58534;gradientColor=none;fontFamily=Helvetica;fontSize=12;fontColor=default;aspect=fixed;labelPosition=right;" vertex="1" parent="1">
          <mxGeometry x="3308" y="356" width="28.75" height="30" as="geometry" />
        </mxCell>
        <mxCell id="ITpf4biujsfm9cVgM0wI-10" value="Buy Products" style="outlineConnect=0;dashed=0;verticalLabelPosition=middle;verticalAlign=middle;align=left;html=1;shape=mxgraph.aws3.lambda_function;fillColor=#F58534;gradientColor=none;fontFamily=Helvetica;fontSize=12;fontColor=default;aspect=fixed;labelPosition=right;" vertex="1" parent="1">
          <mxGeometry x="3308" y="396" width="28.75" height="30" as="geometry" />
        </mxCell>
        <mxCell id="ITpf4biujsfm9cVgM0wI-11" value="Product Search" style="outlineConnect=0;dashed=0;verticalLabelPosition=middle;verticalAlign=middle;align=left;html=1;shape=mxgraph.aws3.lambda_function;fillColor=#F58534;gradientColor=none;fontFamily=Helvetica;fontSize=12;fontColor=default;aspect=fixed;labelPosition=right;" vertex="1" parent="1">
          <mxGeometry x="3308" y="436" width="28.75" height="30" as="geometry" />
        </mxCell>
        <mxCell id="ITpf4biujsfm9cVgM0wI-12" value="Place Order" style="outlineConnect=0;dashed=0;verticalLabelPosition=middle;verticalAlign=middle;align=left;html=1;shape=mxgraph.aws3.lambda_function;fillColor=#F58534;gradientColor=none;fontFamily=Helvetica;fontSize=12;fontColor=default;aspect=fixed;labelPosition=right;" vertex="1" parent="1">
          <mxGeometry x="3459.25" y="396" width="28.75" height="30" as="geometry" />
        </mxCell>
        <mxCell id="ITpf4biujsfm9cVgM0wI-13" value="Purchase History" style="outlineConnect=0;dashed=0;verticalLabelPosition=middle;verticalAlign=middle;align=left;html=1;shape=mxgraph.aws3.lambda_function;fillColor=#F58534;gradientColor=none;fontFamily=Helvetica;fontSize=12;fontColor=default;aspect=fixed;labelPosition=right;" vertex="1" parent="1">
          <mxGeometry x="3308" y="476" width="28.75" height="30" as="geometry" />
        </mxCell>
        <mxCell id="ITpf4biujsfm9cVgM0wI-14" value="Post Review" style="outlineConnect=0;dashed=0;verticalLabelPosition=middle;verticalAlign=middle;align=left;html=1;shape=mxgraph.aws3.lambda_function;fillColor=#F58534;gradientColor=none;fontFamily=Helvetica;fontSize=12;fontColor=default;aspect=fixed;labelPosition=right;" vertex="1" parent="1">
          <mxGeometry x="3608.37" y="396" width="28.75" height="30" as="geometry" />
        </mxCell>
        <mxCell id="ITpf4biujsfm9cVgM0wI-15" value="Live Feed" style="outlineConnect=0;dashed=0;verticalLabelPosition=middle;verticalAlign=middle;align=left;html=1;shape=mxgraph.aws3.lambda_function;fillColor=#F58534;gradientColor=none;fontFamily=Helvetica;fontSize=12;fontColor=default;aspect=fixed;labelPosition=right;" vertex="1" parent="1">
          <mxGeometry x="3608.37" y="436" width="28.75" height="30" as="geometry" />
        </mxCell>
        <mxCell id="ITpf4biujsfm9cVgM0wI-16" value="Order Management" style="outlineConnect=0;dashed=0;verticalLabelPosition=middle;verticalAlign=middle;align=left;html=1;shape=mxgraph.aws3.lambda_function;fillColor=#F58534;gradientColor=none;fontFamily=Helvetica;fontSize=12;fontColor=default;aspect=fixed;labelPosition=right;" vertex="1" parent="1">
          <mxGeometry x="3459.25" y="436" width="28.75" height="30" as="geometry" />
        </mxCell>
        <mxCell id="ITpf4biujsfm9cVgM0wI-17" value="Contact Seller" style="outlineConnect=0;dashed=0;verticalLabelPosition=middle;verticalAlign=middle;align=left;html=1;shape=mxgraph.aws3.lambda_function;fillColor=#F58534;gradientColor=none;fontFamily=Helvetica;fontSize=12;fontColor=default;aspect=fixed;labelPosition=right;" vertex="1" parent="1">
          <mxGeometry x="3608.37" y="356" width="28.75" height="30" as="geometry" />
        </mxCell>
        <mxCell id="ITpf4biujsfm9cVgM0wI-18" value="Payment" style="outlineConnect=0;dashed=0;verticalLabelPosition=middle;verticalAlign=middle;align=left;html=1;shape=mxgraph.aws3.lambda_function;fillColor=#F58534;gradientColor=none;fontFamily=Helvetica;fontSize=12;fontColor=default;aspect=fixed;labelPosition=right;" vertex="1" parent="1">
          <mxGeometry x="3459.25" y="476" width="28.75" height="30" as="geometry" />
        </mxCell>
      </root>
    </mxGraphModel>
  </diagram>
  <diagram id="FHB_CfAasrzkycr79rKF" name="Information">
    <mxGraphModel dx="2213" dy="759" grid="1" gridSize="10" guides="1" tooltips="1" connect="1" arrows="1" fold="1" page="1" pageScale="1" pageWidth="827" pageHeight="1169" math="0" shadow="0">
      <root>
        <mxCell id="0" />
        <mxCell id="1" parent="0" />
        <mxCell id="rB1RiB14KSVDcnu5J91H-1" value="&lt;br&gt;RDS&lt;br&gt;DynamoDB&lt;br&gt;Step Functions&lt;br&gt;API Gateway&lt;br&gt;SQS&lt;br&gt;SNS&lt;br&gt;ECS&lt;br&gt;EC2" style="rounded=0;whiteSpace=wrap;html=1;" parent="1" vertex="1">
          <mxGeometry x="-760" y="399.5" width="120" height="180" as="geometry" />
        </mxCell>
        <mxCell id="rB1RiB14KSVDcnu5J91H-2" value="Lambda&#xa;Trigger Functions based on Events" style="swimlane;startSize=40;" parent="1" vertex="1">
          <mxGeometry x="-760" y="145" width="400" height="230" as="geometry" />
        </mxCell>
        <mxCell id="rB1RiB14KSVDcnu5J91H-3" value="File processing: Use Amazon Simple Storage Service (Amazon S3) &#xa;to trigger Lambda data processing in real time after an upload." style="text;align=left;verticalAlign=middle;resizable=1;points=[];autosize=1;strokeColor=none;fillColor=none;html=1;overflow=fill;whiteSpace=wrap;" parent="rB1RiB14KSVDcnu5J91H-2" vertex="1">
          <mxGeometry x="20" y="50" width="380" height="40" as="geometry" />
        </mxCell>
        <mxCell id="rB1RiB14KSVDcnu5J91H-4" value="Stream processing: Use Lambda and Amazon Kinesis to process real-time streaming data for application activity tracking, transaction order processing, clickstream analysis, data cleansing, log filtering, indexing, social media analysis, Internet of Things (IoT) device data telemetry, and metering.&lt;br&gt;&lt;br&gt;Web applications: Combine Lambda with other AWS services to build powerful web applications that automatically scale up and down and run in a highly available configuration across multiple data centers." style="text;align=left;verticalAlign=middle;resizable=1;points=[];autosize=1;strokeColor=none;fillColor=none;html=1;overflow=fill;whiteSpace=wrap;" parent="rB1RiB14KSVDcnu5J91H-2" vertex="1">
          <mxGeometry x="20" y="90" width="370" height="140" as="geometry" />
        </mxCell>
        <mxCell id="rB1RiB14KSVDcnu5J91H-5" value="S3&#xa;Amazon Simple Storage Service" style="swimlane;align=center;verticalAlign=middle;fontFamily=Helvetica;fontSize=12;fontColor=default;fillColor=none;gradientColor=none;startSize=40;" parent="1" vertex="1">
          <mxGeometry x="-340" y="145" width="280" height="210" as="geometry" />
        </mxCell>
        <mxCell id="rB1RiB14KSVDcnu5J91H-6" value="Objektspeicher-Service" style="text;html=1;align=center;verticalAlign=middle;resizable=0;points=[];autosize=1;strokeColor=none;fillColor=none;fontFamily=Helvetica;fontSize=12;fontColor=default;" parent="rB1RiB14KSVDcnu5J91H-5" vertex="1">
          <mxGeometry y="50" width="150" height="30" as="geometry" />
        </mxCell>
        <mxCell id="rB1RiB14KSVDcnu5J91H-7" value="&lt;font style=&quot;font-size: 12px;&quot;&gt;You can use Amazon S3 to host a static website. On a&amp;nbsp;&lt;em style=&quot;color: rgb(22, 25, 31); font-family: &amp;quot;Amazon Ember&amp;quot;, Helvetica, Arial, sans-serif; text-align: start; background-color: rgb(255, 255, 255);&quot;&gt;static&lt;/em&gt;&lt;span style=&quot;color: rgb(22, 25, 31); font-family: &amp;quot;Amazon Ember&amp;quot;, Helvetica, Arial, sans-serif; text-align: start; background-color: rgb(255, 255, 255);&quot;&gt;&amp;nbsp;website, individual webpages include static content. They might also contain client-side scripts.&lt;/span&gt;&lt;/font&gt;" style="text;align=left;verticalAlign=middle;resizable=1;points=[];autosize=1;strokeColor=none;fillColor=none;html=1;overflow=fill;whiteSpace=wrap;" parent="rB1RiB14KSVDcnu5J91H-5" vertex="1">
          <mxGeometry x="10" y="90" width="220" height="60" as="geometry" />
        </mxCell>
      </root>
    </mxGraphModel>
  </diagram>
</mxfile>
